<svg width="40" height="40" viewBox="0 0 40 40" fill="none" xmlns="http://www.w3.org/2000/svg">
<g clip-path="url(#clip0)">
<path d="M23.1476 28.981H16.8525V32.1049H23.1476V28.981Z" fill="#4E68AA"/>
<path d="M18.2477 28.981H16.8525V32.1049H18.2477V28.981Z" fill="#385693"/>
<path d="M26.2653 33.9075C26.2653 34.0788 26.1252 34.219 25.9539 34.219H14.0473C13.876 34.219 13.7358 34.0788 13.7358 33.9075V32.3464C13.7358 32.1752 13.876 32.0349 14.0473 32.0349H25.9538C26.1251 32.0349 26.2652 32.1752 26.2652 32.3464L26.2653 33.9075Z" fill="#334786"/>
<path d="M15.13 33.9075V32.3464C15.13 32.1752 15.2702 32.0349 15.4415 32.0349H14.0463C13.8751 32.0349 13.7349 32.1752 13.7349 32.3464V33.9075C13.7349 34.0788 13.8751 34.219 14.0463 34.219H15.4415C15.2701 34.219 15.13 34.0787 15.13 33.9075Z" fill="#24356D"/>
<path d="M37.592 5.01416H2.40802C2.18359 5.01416 2 5.19782 2 5.42232V28.6433C2 28.8677 2.18359 29.0513 2.40802 29.0513H26.6282V27.8318C26.6282 27.7075 26.7292 27.6066 26.8534 27.6066H27.8017C27.9953 27.6066 28.1968 27.4632 28.2605 27.2802L28.4395 26.85C28.5238 26.68 28.4832 26.4366 28.3453 26.3001L27.6761 25.6361C27.6338 25.594 27.6104 25.5378 27.6104 25.4778C27.6104 25.4179 27.6338 25.3617 27.6762 25.3196L28.8898 24.1154C28.9324 24.0731 28.9892 24.0499 29.0501 24.0499C29.1108 24.0499 29.1678 24.0731 29.2103 24.1154L29.8795 24.7794C29.9652 24.8644 30.0976 24.9153 30.2335 24.9153C30.3066 24.9153 30.3764 24.9002 30.4352 24.8715L30.8712 24.6929C31.0508 24.6316 31.1945 24.4306 31.1945 24.2368V23.3003C31.1945 23.176 31.2955 23.0751 31.4197 23.0751H33.138C33.2622 23.0751 33.3632 23.1761 33.3632 23.3003V24.2368C33.3632 24.4307 33.5069 24.6316 33.6903 24.6944L34.1268 24.8734C34.1814 24.9002 34.2512 24.9153 34.3243 24.9153C34.4603 24.9153 34.5926 24.8645 34.6784 24.7794L35.3476 24.1155C35.3901 24.0732 35.447 24.0499 35.5078 24.0499C35.5685 24.0499 35.6254 24.0732 35.6679 24.1155L36.8814 25.3197C36.9238 25.3618 36.9471 25.418 36.9471 25.478C36.9471 25.5379 36.9237 25.5941 36.8814 25.6362L36.2124 26.3002C36.0745 26.4367 36.0339 26.6801 36.12 26.8543L36.2987 27.2842C36.3607 27.4633 36.5622 27.6066 36.756 27.6066H37.7043C37.8285 27.6066 37.9295 27.7076 37.9295 27.8318V28.8716C37.9738 28.8064 37.9998 28.7278 37.9998 28.6434V5.42232C38 5.19782 37.8164 5.01416 37.592 5.01416Z" fill="#3D5190"/>
<path d="M3.7915 24.9712C3.7915 25.1059 3.90168 25.216 4.03633 25.216H27.7809L28.8903 24.1153C28.9329 24.073 28.9897 24.0497 29.0506 24.0497C29.1113 24.0497 29.1683 24.073 29.2108 24.1153L29.88 24.7792C29.9657 24.8643 30.0981 24.9152 30.234 24.9152C30.3071 24.9152 30.3769 24.9 30.4357 24.8714L30.8717 24.6927C31.0513 24.6315 31.195 24.4305 31.195 24.2366V23.3001C31.195 23.1759 31.296 23.0749 31.4202 23.0749H33.1385C33.2627 23.0749 33.3637 23.176 33.3637 23.3001V24.2366C33.3637 24.4305 33.5074 24.6315 33.6908 24.6943L34.1273 24.8733C34.1819 24.9001 34.2517 24.9152 34.3248 24.9152C34.4608 24.9152 34.5931 24.8644 34.6789 24.7793L35.3481 24.1153C35.3906 24.0731 35.4475 24.0498 35.5083 24.0498C35.569 24.0498 35.6259 24.0731 35.6685 24.1153L36.2093 24.6521V9.02515H3.7915V24.9712Z" fill="white"/>
<path d="M20.0005 28.2278C20.6089 28.2278 21.1021 27.7346 21.1021 27.1262C21.1021 26.5179 20.6089 26.0247 20.0005 26.0247C19.3921 26.0247 18.8989 26.5179 18.8989 27.1262C18.8989 27.7346 19.3921 28.2278 20.0005 28.2278Z" fill="#4E68AA"/>
<path d="M35.9647 7.09497H4.03633C3.90168 7.09497 3.7915 7.20508 3.7915 7.3398V9.0955H36.2094V7.3398C36.2094 7.20508 36.0993 7.09497 35.9647 7.09497Z" fill="#5DC1D8"/>
<path d="M33.7777 32.9256L33.7778 32.9259L33.7888 32.9214L34.2292 32.741L34.2294 32.7414L34.241 32.7357C34.2697 32.7217 34.3162 32.7141 34.3699 32.723C34.4237 32.7319 34.4652 32.7542 34.4878 32.7766L34.4879 32.7767L35.1571 33.4408L35.1572 33.4409C35.3505 33.6325 35.6649 33.6325 35.8582 33.4409L35.8583 33.4408L37.0717 32.2364C37.266 32.0437 37.2661 31.7289 37.0718 31.5362C37.0717 31.5362 37.0717 31.5361 37.0717 31.5361L36.4027 30.8722L36.4026 30.872C36.3802 30.8499 36.3582 30.8092 36.3494 30.7564C36.3406 30.7037 36.3483 30.6579 36.3623 30.6296L36.3627 30.6298L36.3677 30.6178L36.5482 30.1837L36.5486 30.1838L36.5525 30.1725C36.563 30.1424 36.5904 30.1042 36.6348 30.0727C36.6791 30.0412 36.7242 30.0277 36.7559 30.0277H37.7042C37.9773 30.0277 38.1998 29.8054 38.1998 29.5323V27.8316C38.1998 27.5586 37.9773 27.336 37.7042 27.336H36.7559C36.7241 27.336 36.679 27.3226 36.6347 27.2911C36.5905 27.2596 36.563 27.2214 36.5525 27.1913L36.5529 27.1912L36.5482 27.1801L36.3677 26.746L36.3681 26.7458L36.3623 26.7342C36.3483 26.7059 36.3406 26.6601 36.3494 26.6074C36.3582 26.5546 36.3803 26.514 36.4026 26.4919L36.4027 26.4917L37.0717 25.8278C37.0717 25.8278 37.0717 25.8277 37.0718 25.8277C37.2661 25.635 37.266 25.3202 37.0717 25.1275L35.8583 23.9233C35.8583 23.9233 35.8583 23.9232 35.8583 23.9232C35.665 23.7314 35.3505 23.7313 35.1571 23.9232C35.1571 23.9232 35.1571 23.9233 35.1571 23.9233L34.488 24.5871C34.4653 24.6096 34.4236 24.6319 34.3698 24.6409C34.316 24.6498 34.2695 24.6421 34.2409 24.6282L34.2411 24.6278L34.2291 24.6229L33.7888 24.4425L33.7889 24.4422L33.7776 24.4383C33.7476 24.4281 33.7096 24.4009 33.6782 24.3569C33.6467 24.3129 33.6333 24.2681 33.6333 24.2364V23.2999C33.6333 23.0269 33.4107 22.8044 33.1379 22.8044H31.4195C31.1464 22.8044 30.9241 23.0271 30.9241 23.2999V24.2364C30.9241 24.2681 30.9106 24.3129 30.8792 24.3569C30.8478 24.4008 30.8097 24.428 30.7796 24.4383L30.7795 24.438L30.7686 24.4425L30.3283 24.6229L30.3282 24.6225L30.3166 24.6282C30.288 24.6421 30.2415 24.6498 30.1877 24.6409C30.1339 24.632 30.0923 24.6097 30.0696 24.5872L30.0696 24.5872L29.4004 23.9232L29.4004 23.9232C29.207 23.7314 28.8926 23.7313 28.6992 23.9232C28.6991 23.9232 28.6991 23.9232 28.6991 23.9233L27.4854 25.1275L27.4853 25.1275C27.2913 25.3203 27.2913 25.6348 27.4853 25.8276L27.4854 25.8277L28.1547 26.4918L28.1548 26.4919C28.1771 26.514 28.1992 26.5546 28.2079 26.6074C28.2167 26.6601 28.209 26.7059 28.195 26.7342L28.1947 26.734L28.1897 26.746L28.0091 27.1801L28.0088 27.1799L28.0049 27.1912C27.9944 27.2214 27.9668 27.2596 27.9225 27.2911C27.8782 27.3226 27.8332 27.336 27.8014 27.336H26.8531C26.58 27.336 26.3576 27.5587 26.3576 27.8316V29.5323C26.3576 29.8055 26.5802 30.0277 26.8531 30.0277H27.8014C27.8332 30.0277 27.8782 30.0412 27.9225 30.0727C27.9668 30.1042 27.9944 30.1424 28.0049 30.1726L28.0046 30.1727L28.0091 30.1837L28.1898 30.6179L28.1894 30.6181L28.1952 30.6298C28.2091 30.658 28.2168 30.7037 28.2081 30.7565C28.1993 30.8093 28.1772 30.85 28.1549 30.8721C28.1549 30.8721 28.1549 30.8721 28.1549 30.8721L27.4854 31.5361L27.4854 31.5362C27.2913 31.7289 27.2913 32.0436 27.4853 32.2364L27.4854 32.2364L28.6992 33.4408L28.6993 33.4409C28.8926 33.6325 29.207 33.6325 29.4004 33.4407L29.4005 33.4407L30.0695 32.7767L30.0695 32.7767C30.0922 32.7542 30.1338 32.7319 30.1875 32.723C30.2413 32.714 30.2879 32.7217 30.3165 32.7357L30.3163 32.736L30.3282 32.7409L30.7686 32.9214L30.7684 32.9217L30.7797 32.9256C30.8097 32.9359 30.8478 32.963 30.8792 33.007C30.9106 33.051 30.9241 33.0958 30.9241 33.1276V34.064C30.9241 34.3369 31.1466 34.5594 31.4195 34.5594H33.1379C33.4108 34.5594 33.6333 34.3368 33.6333 34.064V33.1276C33.6333 33.0959 33.6467 33.051 33.6782 33.0071C33.7096 32.9631 33.7477 32.9359 33.7777 32.9256Z" fill="#D93197" stroke="white" stroke-width="0.4"/>
<path d="M32.2783 31.4146C30.7576 31.4146 29.5249 30.1914 29.5249 28.6822C29.525 27.1729 30.7576 25.9497 32.2783 25.9497C33.7991 25.9497 35.0318 27.1729 35.0318 28.682C35.0318 30.1913 33.7991 31.4146 32.2783 31.4146Z" fill="white"/>
<path d="M32.2792 31.8579C30.5165 31.8579 29.0825 30.4331 29.0825 28.6822C29.0826 26.931 30.5167 25.5063 32.2792 25.5063C34.0419 25.5063 35.476 26.931 35.476 28.682C35.476 30.4331 34.0419 31.8579 32.2792 31.8579ZM32.2792 26.3928C31.0055 26.3928 29.9692 27.4197 29.9691 28.6822C29.9691 29.9444 31.0054 30.9715 32.2792 30.9715C33.5531 30.9715 34.5893 29.9445 34.5895 28.682C34.5895 27.4197 33.5531 26.3928 32.2792 26.3928Z" fill="#B1096F"/>
<path d="M32.2787 29.8373C31.6358 29.8373 31.1147 29.32 31.1147 28.6822C31.1147 28.044 31.6358 27.5269 32.2787 27.5269C32.9218 27.5269 33.4427 28.0439 33.4427 28.682C33.4427 29.32 32.9217 29.8373 32.2787 29.8373Z" fill="white"/>
<path d="M32.2796 30.2804C31.3934 30.2804 30.6724 29.5634 30.6724 28.6821C30.6724 27.8006 31.3934 27.0837 32.2796 27.0837C33.1659 27.0837 33.8868 27.8006 33.8868 28.6819C33.8866 29.5634 33.1657 30.2804 32.2796 30.2804ZM32.2796 27.97C31.8822 27.97 31.5589 28.2895 31.5589 28.682C31.5589 29.0744 31.8822 29.3939 32.2796 29.3939C32.677 29.3939 33.0002 29.0744 33.0002 28.6819C33.0002 28.2895 32.677 27.97 32.2796 27.97Z" fill="#B1096F"/>
<path d="M32.2644 12.405H22.9922C22.701 12.405 22.4648 12.169 22.4648 11.8777C22.4648 11.5864 22.701 11.3503 22.9922 11.3503H32.2644C32.5557 11.3503 32.7917 11.5864 32.7917 11.8777C32.7918 12.169 32.5557 12.405 32.2644 12.405Z" fill="#69CDFF"/>
<path d="M32.2644 14.1267H22.9922C22.701 14.1267 22.4648 13.8907 22.4648 13.5994C22.4648 13.3081 22.701 13.072 22.9922 13.072H32.2644C32.5557 13.072 32.7917 13.3081 32.7917 13.5994C32.7918 13.8906 32.5557 14.1267 32.2644 14.1267Z" fill="#69CDFF"/>
<path d="M32.2644 15.8486H22.9922C22.701 15.8486 22.4648 15.6126 22.4648 15.3213C22.4648 15.03 22.701 14.7939 22.9922 14.7939H32.2644C32.5557 14.7939 32.7917 15.03 32.7917 15.3213C32.7918 15.6126 32.5557 15.8486 32.2644 15.8486Z" fill="#69CDFF"/>
<path d="M32.2644 18.7329H22.9922C22.701 18.7329 22.4648 18.4969 22.4648 18.2056C22.4648 17.9143 22.701 17.6782 22.9922 17.6782H32.2644C32.5557 17.6782 32.7917 17.9143 32.7917 18.2056C32.7917 18.4969 32.5557 18.7329 32.2644 18.7329Z" fill="#37C47A"/>
<path d="M32.2644 20.4546H22.9922C22.701 20.4546 22.4648 20.2186 22.4648 19.9272C22.4648 19.6359 22.701 19.3999 22.9922 19.3999H32.2644C32.5557 19.3999 32.7917 19.6359 32.7917 19.9272C32.7918 20.2185 32.5557 20.4546 32.2644 20.4546Z" fill="#37C47A"/>
<path d="M27.5994 22.1765H22.9922C22.701 22.1765 22.4648 21.9405 22.4648 21.6492C22.4648 21.3579 22.701 21.1218 22.9922 21.1218H27.5994C27.8907 21.1218 28.1268 21.3579 28.1268 21.6492C28.1268 21.9405 27.8907 22.1765 27.5994 22.1765Z" fill="#37C47A"/>
<g clip-path="url(#clip1)">
<path d="M16.1847 15.5703C16.2879 15.5703 16.3716 15.4919 16.3716 15.3952C16.3716 15.2984 16.2879 15.22 16.1847 15.22H15.342V14.5652H16.1847C16.2879 14.5652 16.3716 14.4868 16.3716 14.39C16.3716 14.2933 16.2879 14.2149 16.1847 14.2149H15.342V13.744C15.342 13.6473 15.2584 13.5689 15.1552 13.5689H13.9972V13.1374L15.0743 12.1277C15.0964 12.107 15.1116 12.0824 15.1204 12.0563C15.1204 12.0561 15.1205 12.056 15.1206 12.0558C15.1263 12.0383 15.1292 12.0202 15.1289 12.0021V11.1156C15.3449 11.0434 15.5003 10.8503 15.5003 10.6233C15.5003 10.3348 15.2499 10.1001 14.9422 10.1001C14.6345 10.1001 14.3842 10.3348 14.3842 10.6233C14.3842 10.8502 14.5394 11.0433 14.7553 11.1156V11.9314L13.6782 12.9412C13.6408 12.9763 13.6227 13.0225 13.6236 13.0684V13.5689H12.8996V12.5457L13.3717 12.103C13.3811 12.0944 13.3894 12.0848 13.3967 12.0746C13.397 12.0743 13.3971 12.0741 13.3973 12.0739C13.4004 12.0693 13.4034 12.0646 13.4061 12.0598C13.4064 12.0594 13.4066 12.0588 13.4068 12.0584C13.4093 12.0538 13.4118 12.0491 13.4139 12.0441C13.4139 12.0439 13.414 12.0437 13.4141 12.0435C13.4228 12.0233 13.4277 12.0013 13.4277 11.9781V11.7605C13.6436 11.6882 13.7987 11.495 13.7987 11.2681C13.7987 10.9796 13.5485 10.7449 13.2408 10.7449C12.9331 10.7449 12.6828 10.9796 12.6828 11.2681C12.6828 11.4951 12.838 11.6883 13.0541 11.7606V11.9055L12.5807 12.3493C12.5786 12.3513 12.5768 12.3534 12.5748 12.3555C12.5726 12.3576 12.5705 12.3597 12.5686 12.3619C12.5659 12.3649 12.5635 12.3682 12.5611 12.3713C12.5599 12.3727 12.5588 12.3741 12.5577 12.3756C12.5552 12.379 12.5531 12.3826 12.551 12.3861C12.5501 12.3874 12.5492 12.3888 12.5484 12.3902C12.5462 12.3937 12.5446 12.3974 12.5428 12.4011C12.542 12.4026 12.5412 12.404 12.5404 12.4056C12.5388 12.4094 12.5375 12.4131 12.536 12.4169C12.5355 12.4186 12.5348 12.4202 12.5342 12.4217C12.5329 12.4258 12.5319 12.4299 12.5309 12.4341C12.5305 12.4355 12.5301 12.4369 12.5297 12.4384C12.5286 12.4436 12.5277 12.449 12.5272 12.4544C12.5272 12.4547 12.527 12.455 12.527 12.4552C12.5263 12.4616 12.526 12.4679 12.526 12.4742V13.5688H11.6653V12.8273C11.8814 12.7551 12.0368 12.5619 12.0368 12.3349C12.0368 12.0464 11.7865 11.8117 11.4787 11.8117C11.171 11.8117 10.9208 12.0464 10.9208 12.3349C10.9208 12.5618 11.076 12.7548 11.2917 12.8271V13.5688H10.4313V12.4764C10.4322 12.4305 10.4142 12.3844 10.3768 12.3493L9.90349 11.9055V11.7605C10.1195 11.6883 10.2747 11.4951 10.2747 11.2681C10.2747 10.9796 10.0245 10.7449 9.7168 10.7449C9.40909 10.7449 9.15875 10.9796 9.15875 11.2681C9.15875 11.495 9.31401 11.6882 9.52989 11.7605V11.9781C9.52989 11.9952 9.53258 12.0115 9.53741 12.0271C9.53752 12.0274 9.53763 12.0278 9.53774 12.0281C9.5392 12.0328 9.541 12.0375 9.54291 12.0421C9.54324 12.0428 9.54347 12.0436 9.54381 12.0443C9.54571 12.0487 9.54785 12.0529 9.55009 12.0572C9.55065 12.0581 9.55099 12.059 9.55155 12.06C9.55402 12.0642 9.5566 12.0684 9.55941 12.0724C9.55997 12.0733 9.56042 12.074 9.56098 12.0747C9.56805 12.0848 9.57636 12.0943 9.58557 12.1027L10.0577 12.5455V13.5689H9.33376V13.07C9.33511 13.0235 9.31715 12.9766 9.27932 12.9411L8.20217 11.9313V11.1156C8.41816 11.0433 8.57331 10.8502 8.57331 10.6233C8.57331 10.3348 8.32307 10.1001 8.01537 10.1001C7.70766 10.1001 7.45731 10.3348 7.45731 10.6233C7.45731 10.8503 7.61257 11.0434 7.82856 11.1156V12.0026C7.82845 12.0147 7.8298 12.0268 7.83238 12.0387C7.83249 12.0396 7.83272 12.0402 7.83294 12.0409C7.83406 12.0459 7.8353 12.0507 7.83687 12.0555C7.83709 12.0563 7.83754 12.0572 7.83777 12.0579C7.83945 12.0626 7.84114 12.0672 7.84316 12.0717C7.84338 12.0722 7.84372 12.0727 7.84394 12.0733C7.84619 12.078 7.84855 12.0827 7.85113 12.0873C7.85955 12.1018 7.87021 12.1155 7.88323 12.1277L8.96016 13.1374V13.569H7.73247C7.6293 13.569 7.54566 13.6474 7.54566 13.7442V14.2149H6.70292C6.59975 14.2149 6.51611 14.2933 6.51611 14.39C6.51611 14.4868 6.59975 14.5652 6.70292 14.5652H7.54566V15.22H6.70292C6.59975 15.22 6.51611 15.2984 6.51611 15.3952C6.51611 15.4919 6.59975 15.5703 6.70292 15.5703H7.54566V16.2249H6.70292C6.59975 16.2249 6.51611 16.3033 6.51611 16.4C6.51611 16.4968 6.59975 16.5752 6.70292 16.5752H7.54566V17.2299H6.70292C6.59975 17.2299 6.51611 17.3083 6.51611 17.405C6.51611 17.5018 6.59975 17.5802 6.70292 17.5802H7.54566V18.2349H6.70292C6.59975 18.2349 6.51611 18.3133 6.51611 18.41C6.51611 18.5068 6.59975 18.5852 6.70292 18.5852H7.54566V19.056C7.54566 19.1528 7.6293 19.2312 7.73247 19.2312H8.9605V19.6625L7.88323 20.6724C7.8463 20.707 7.82811 20.7525 7.82856 20.798V21.6845C7.61257 21.7567 7.45731 21.9498 7.45731 22.1768C7.45731 22.4653 7.70754 22.7 8.01525 22.7C8.32296 22.7 8.57331 22.4653 8.57331 22.1768C8.57331 21.9499 8.41816 21.7568 8.20217 21.6846V20.8687L9.27932 19.859C9.27999 19.8583 9.28044 19.8577 9.28111 19.8571C9.28471 19.8535 9.2883 19.8499 9.29167 19.8461C9.29346 19.844 9.29503 19.8419 9.29672 19.8397C9.29874 19.8373 9.30076 19.8349 9.30256 19.8323C9.30435 19.8299 9.30581 19.8274 9.30738 19.825C9.30895 19.8224 9.31053 19.8201 9.31199 19.8175C9.31333 19.8151 9.31457 19.8126 9.3158 19.8101C9.31715 19.8074 9.31861 19.8048 9.31984 19.8019C9.32085 19.7997 9.32164 19.7973 9.32265 19.795C9.32377 19.7919 9.32501 19.7889 9.32602 19.7857C9.32669 19.7835 9.32725 19.7814 9.32782 19.7792C9.32871 19.7758 9.32972 19.7725 9.33051 19.7691C9.33096 19.7668 9.33118 19.7645 9.33163 19.7622C9.33219 19.7589 9.33287 19.7555 9.3332 19.7521C9.33343 19.749 9.33354 19.7458 9.33365 19.7428C9.33376 19.7401 9.3341 19.7376 9.3341 19.735V19.2312H10.0581V20.2542L9.58568 20.6972C9.57636 20.7057 9.56805 20.7151 9.56087 20.7254C9.56042 20.726 9.56008 20.7266 9.55963 20.7273C9.55683 20.7315 9.55402 20.7357 9.55155 20.7401C9.5511 20.7409 9.55065 20.7418 9.5502 20.7426C9.54796 20.7469 9.54571 20.7512 9.54381 20.7558C9.54347 20.7564 9.54324 20.757 9.54302 20.7577C9.541 20.7623 9.5392 20.767 9.53763 20.772C9.53763 20.7722 9.53752 20.7724 9.53752 20.7726C9.53258 20.7883 9.52989 20.8048 9.52989 20.8219V21.0395C9.31401 21.1118 9.15875 21.3048 9.15875 21.5319C9.15875 21.8203 9.40909 22.055 9.7168 22.055C10.0245 22.055 10.2747 21.8203 10.2747 21.5319C10.2747 21.3048 10.1195 21.1117 9.90349 21.0395V20.8945L10.3752 20.4521C10.41 20.4204 10.4317 20.376 10.4317 20.3269V19.2312H11.2921V19.9727C11.0761 20.0449 10.9208 20.2381 10.9208 20.4651C10.9208 20.7536 11.171 20.9883 11.4787 20.9883C11.7865 20.9883 12.0368 20.7536 12.0368 20.4651C12.0368 20.2381 11.8815 20.045 11.6657 19.9727V19.2312H12.526V20.3268C12.526 20.3326 12.5264 20.3384 12.5269 20.3442C12.5273 20.3469 12.5278 20.3495 12.5282 20.3522C12.5286 20.3551 12.5291 20.3582 12.5296 20.3611C12.5303 20.3642 12.5312 20.3672 12.5321 20.3703C12.5328 20.3727 12.5333 20.3752 12.5341 20.3776C12.5351 20.3808 12.5364 20.3837 12.5375 20.3867C12.5384 20.3891 12.5392 20.3915 12.5403 20.3938C12.5415 20.3967 12.543 20.3995 12.5444 20.4023C12.5457 20.4046 12.5467 20.407 12.548 20.4093C12.5497 20.4121 12.5515 20.4149 12.5532 20.4175C12.5547 20.4197 12.5559 20.4219 12.5575 20.424C12.5597 20.4272 12.5622 20.4302 12.5647 20.4333C12.5659 20.4348 12.567 20.4364 12.5682 20.4378C12.5723 20.4424 12.5766 20.4469 12.5812 20.4511L13.0541 20.8945V21.0395C12.8381 21.1117 12.6828 21.3048 12.6828 21.532C12.6828 21.8204 12.9331 22.055 13.2408 22.055C13.5485 22.055 13.7989 21.8204 13.7989 21.532C13.7989 21.305 13.6436 21.1118 13.4277 21.0396V20.822C13.4277 20.8113 13.4265 20.801 13.4246 20.7909C13.4243 20.7901 13.4243 20.7891 13.4241 20.7883C13.4232 20.7839 13.422 20.7795 13.4208 20.7751C13.4204 20.774 13.4202 20.7728 13.4197 20.7717C13.4184 20.7676 13.4168 20.7636 13.4153 20.7596C13.4147 20.7582 13.4142 20.7568 13.4137 20.7556C13.412 20.7518 13.4101 20.748 13.4082 20.7444C13.4074 20.7429 13.4067 20.7414 13.4058 20.7399C13.4038 20.7362 13.4014 20.7327 13.3991 20.7291C13.3982 20.7278 13.3974 20.7265 13.3965 20.7251C13.3936 20.7209 13.3903 20.717 13.3871 20.713C13.3865 20.7125 13.3861 20.7119 13.3856 20.7114C13.3815 20.7065 13.3771 20.702 13.3724 20.6976L12.8998 20.2544V19.2312H13.6237V19.7329C13.6235 19.7512 13.6263 19.7695 13.6321 19.7872C13.6408 19.8135 13.6562 19.8382 13.6783 19.859L14.7554 20.8688V21.6846C14.5396 21.7569 14.3843 21.95 14.3843 22.1769C14.3843 22.4654 14.6346 22.7001 14.9423 22.7001C15.2501 22.7001 15.5004 22.4654 15.5004 22.1769C15.5004 21.9499 15.345 21.7568 15.129 21.6846V20.7981C15.1295 20.7526 15.1113 20.7072 15.0744 20.6724L13.9973 19.6627V19.2312H15.1553C15.2585 19.2312 15.3421 19.1528 15.3421 19.056V18.5852H16.1849C16.288 18.5852 16.3717 18.5068 16.3717 18.41C16.3717 18.3133 16.288 18.2349 16.1849 18.2349H15.3421V17.5802H16.1849C16.288 17.5802 16.3717 17.5018 16.3717 17.405C16.3717 17.3083 16.288 17.2299 16.1849 17.2299H15.3421V16.5752H16.1849C16.288 16.5752 16.3717 16.4968 16.3717 16.4C16.3717 16.3033 16.288 16.2249 16.1849 16.2249H15.3421V15.5703H16.1847ZM14.9422 10.4504C15.0438 10.4504 15.1266 10.5279 15.1266 10.6233C15.1266 10.7186 15.0438 10.7962 14.9422 10.7962C14.8405 10.7962 14.7578 10.7186 14.7578 10.6233C14.7578 10.5279 14.8405 10.4504 14.9422 10.4504ZM13.2407 11.0953C13.3424 11.0953 13.4251 11.1729 13.4251 11.2682C13.4251 11.3636 13.3424 11.441 13.2407 11.441C13.1391 11.441 13.0564 11.3636 13.0564 11.2682C13.0564 11.1729 13.1391 11.0953 13.2407 11.0953ZM11.4787 12.1621C11.5805 12.1621 11.6632 12.2397 11.6632 12.335C11.6632 12.4304 11.5805 12.5079 11.4787 12.5079C11.377 12.5079 11.2943 12.4304 11.2943 12.335C11.2943 12.2397 11.377 12.1621 11.4787 12.1621ZM9.71669 11.0953C9.8184 11.0953 9.90113 11.1729 9.90113 11.2682C9.90113 11.3636 9.8184 11.441 9.71669 11.441C9.61498 11.441 9.53236 11.3636 9.53236 11.2682C9.53236 11.1729 9.61498 11.0953 9.71669 11.0953ZM8.01525 10.4504C8.11696 10.4504 8.1997 10.5279 8.1997 10.6233C8.1997 10.7186 8.11696 10.7962 8.01525 10.7962C7.91354 10.7962 7.83092 10.7186 7.83092 10.6233C7.83092 10.5279 7.91366 10.4504 8.01525 10.4504ZM8.01525 22.3497C7.91354 22.3497 7.83092 22.2722 7.83092 22.1768C7.83092 22.0815 7.91354 22.0039 8.01525 22.0039C8.11696 22.0039 8.1997 22.0815 8.1997 22.1768C8.1997 22.2722 8.11696 22.3497 8.01525 22.3497ZM9.71669 21.7048C9.61498 21.7048 9.53236 21.6272 9.53236 21.5319C9.53236 21.4365 9.61498 21.3589 9.71669 21.3589C9.8184 21.3589 9.90113 21.4365 9.90113 21.5319C9.90113 21.6272 9.8184 21.7048 9.71669 21.7048ZM11.4787 20.638C11.377 20.638 11.2943 20.5604 11.2943 20.4651C11.2943 20.3697 11.377 20.2922 11.4787 20.2922C11.5805 20.2922 11.6632 20.3697 11.6632 20.4651C11.6632 20.5604 11.5805 20.638 11.4787 20.638ZM13.2407 21.7048C13.1391 21.7048 13.0564 21.6272 13.0564 21.5319C13.0564 21.4365 13.1391 21.3589 13.2407 21.3589C13.3424 21.3589 13.4251 21.4365 13.4251 21.5319C13.4251 21.6272 13.3424 21.7048 13.2407 21.7048ZM14.9422 22.3497C14.8405 22.3497 14.7578 22.2722 14.7578 22.1768C14.7578 22.0815 14.8405 22.0039 14.9422 22.0039C15.0438 22.0039 15.1266 22.0815 15.1266 22.1768C15.1266 22.2722 15.0439 22.3497 14.9422 22.3497ZM14.9684 18.8809H13.8138C13.8127 18.8808 13.8115 18.8807 13.8104 18.8807C13.8093 18.8807 13.8082 18.8808 13.807 18.8809H12.7162C12.7151 18.8808 12.714 18.8807 12.7128 18.8807C12.7117 18.8807 12.7106 18.8808 12.7095 18.8809H11.4821C11.4811 18.8808 11.48 18.8807 11.4789 18.8807C11.4777 18.8807 11.4766 18.8808 11.4755 18.8809H10.2481C10.247 18.8808 10.246 18.8807 10.2449 18.8807C10.2438 18.8807 10.2426 18.8808 10.2415 18.8809H9.15055C9.14943 18.8808 9.14842 18.8807 9.1473 18.8807C9.14618 18.8807 9.14505 18.8808 9.14393 18.8809H7.91927V13.9192H9.14449C9.14528 13.9192 9.14618 13.9194 9.14696 13.9194C9.14775 13.9194 9.14865 13.9192 9.14943 13.9192H10.2421C10.2429 13.9192 10.2436 13.9194 10.2445 13.9194C10.2453 13.9194 10.2462 13.9192 10.247 13.9192H11.4761C11.4768 13.9192 11.4777 13.9194 11.4785 13.9194C11.4794 13.9194 11.4802 13.9192 11.4811 13.9192H12.7104C12.7112 13.9192 12.7121 13.9194 12.7128 13.9194C12.7137 13.9194 12.7145 13.9192 12.7153 13.9192H13.8079C13.8087 13.9192 13.8096 13.9194 13.8104 13.9194C13.8112 13.9194 13.8121 13.9192 13.8129 13.9192H14.9684V18.8809Z" fill="url(#paint0_linear)"/>
<path d="M10.2927 14.2148C10.1895 14.2148 10.1059 14.2933 10.1059 14.39C10.1059 15.1497 9.44655 15.7679 8.63602 15.7679C8.53285 15.7679 8.44922 15.8463 8.44922 15.943C8.44922 16.0397 8.53285 16.1181 8.63602 16.1181C9.65255 16.1181 10.4795 15.3429 10.4795 14.39C10.4795 14.2933 10.3958 14.2148 10.2927 14.2148Z" fill="url(#paint1_linear)"/>
<path d="M8.63602 16.6816C8.53285 16.6816 8.44922 16.76 8.44922 16.8568C8.44922 16.9535 8.53285 17.0319 8.63602 17.0319C9.44655 17.0319 10.1059 17.65 10.1059 18.41C10.1059 18.5067 10.1895 18.585 10.2927 18.585C10.3958 18.585 10.4795 18.5065 10.4795 18.4098C10.4795 17.4569 9.65255 16.6816 8.63602 16.6816Z" fill="url(#paint2_linear)"/>
<path d="M12.7838 14.39C12.7838 14.2933 12.7001 14.2148 12.597 14.2148C12.4938 14.2148 12.4102 14.2933 12.4102 14.39C12.4102 15.343 13.2371 16.1182 14.2536 16.1182C14.3568 16.1182 14.4404 16.0398 14.4404 15.9431C14.4404 15.8464 14.3568 15.768 14.2536 15.768C13.4431 15.768 12.7838 15.1499 12.7838 14.39Z" fill="url(#paint3_linear)"/>
<path d="M14.2536 16.6816C13.2371 16.6816 12.4102 17.4569 12.4102 18.4099V18.4101C12.4102 18.5068 12.4938 18.5851 12.597 18.5851C12.7001 18.5851 12.7838 18.5066 12.7838 18.4099C12.7838 17.65 13.4431 17.0319 14.2536 17.0319C14.3568 17.0319 14.4404 16.9535 14.4404 16.8568C14.4404 16.76 14.3568 16.6816 14.2536 16.6816Z" fill="url(#paint4_linear)"/>
</g>
</g>
<defs>
<linearGradient id="paint0_linear" x1="8.50031" y1="13.3939" x2="14.0932" y2="19.8163" gradientUnits="userSpaceOnUse">
<stop stop-color="#CF278D"/>
<stop offset="1" stop-color="#5468FF"/>
</linearGradient>
<linearGradient id="paint1_linear" x1="8.07541" y1="13.7646" x2="13.6683" y2="20.187" gradientUnits="userSpaceOnUse">
<stop stop-color="#EA6060"/>
<stop offset="1" stop-color="#7117EA"/>
</linearGradient>
<linearGradient id="paint2_linear" x1="6.9253" y1="14.7662" x2="12.5182" y2="21.1886" gradientUnits="userSpaceOnUse">
<stop stop-color="#EA6060"/>
<stop offset="1" stop-color="#7117EA"/>
</linearGradient>
<linearGradient id="paint3_linear" x1="10.0399" y1="12.0542" x2="15.6328" y2="18.4765" gradientUnits="userSpaceOnUse">
<stop stop-color="#EA6060"/>
<stop offset="1" stop-color="#7117EA"/>
</linearGradient>
<linearGradient id="paint4_linear" x1="8.88974" y1="13.0557" x2="14.4826" y2="19.4781" gradientUnits="userSpaceOnUse">
<stop stop-color="#EA6060"/>
<stop offset="1" stop-color="#7117EA"/>
</linearGradient>
<clipPath id="clip0">
<rect width="36" height="36" fill="white" transform="translate(2 2)"/>
</clipPath>
<clipPath id="clip1">
<rect width="9.9" height="12.6" fill="white" transform="translate(6.5 10.1001)"/>
</clipPath>
</defs>
</svg>
